<svg xmlns="http://www.w3.org/2000/svg" viewBox="0 0 64 64">
<rect width="64" height="64" rx="14" fill="#141014"/>
<g fill="none" stroke="#D4AF6E" stroke-linecap="round">
<path d="M32 13 C41 13 47 20 47 28 C47 38 39 45 32 45 C25 45 18 39 18 30 C18 22 24 16 31 16" stroke-width="2.2"/>
<path d="M32 20 C37 20 41 24 41 29 C41 34 37 38 32 38 C28 38 25 35 25 31 C25 27 28 24 32 25" stroke-width="1.8"/>
<path d="M32 27 C34.5 27 36.5 29 36.5 31.5 C36.5 34 34.5 36 32 36 C30 36 28.5 34.5 28.5 32.5 C28.5 30.5 30 29 32 29" stroke-width="1.5"/>
<path d="M32 45 C32 51 30 55 26 58" stroke-width="2"/>
<path d="M31 51 C26 49 22 50 19 53 C23 55 28 54.5 31 51Z" stroke-width="1.6"/>
<path d="M32.5 53 C36.5 52 39.5 53 41.5 56 C38 57.5 34 56.8 32.5 53Z" stroke-width="1.6"/>
</g></svg>